<svg width="200" height="235" viewBox="0 0 200 235" fill="none" xmlns="http://www.w3.org/2000/svg">
<path d="M193.302 88.0658C186.906 114.05 176.024 149.963 160.263 179.27C152.382 193.925 143.413 206.673 133.386 215.705C123.401 224.7 112.602 229.812 100.855 229.812C89.0679 229.812 77.9039 224.716 67.4383 215.739C56.9482 206.74 47.4122 194.043 39.0632 179.456C22.361 150.274 10.9213 114.437 6.05554 88.3443C1.51987 64.0218 12.0131 43.4343 30.4337 28.6244C48.9649 13.7256 75.2336 5 100.855 5C126.463 5 152.856 13.9177 171.149 28.8977C189.32 43.7774 199.165 64.2475 193.302 88.0658Z" stroke="white" stroke-width="10"/>
</svg>
