<svg width="62" height="39" viewBox="0 0 62 39" fill="none" xmlns="http://www.w3.org/2000/svg">
<path d="M18.8847 20.74C18.6847 20.6333 18.538 20.5 18.4447 20.34C18.3647 20.18 18.3247 20.02 18.3247 19.86C18.3247 19.66 18.3713 19.5067 18.4647 19.4C18.518 19.3333 18.5713 19.2933 18.6247 19.28C18.6913 19.28 18.7113 19.3133 18.6847 19.38C18.6447 19.62 18.738 19.8467 18.9647 20.06C19.2047 20.2867 19.4247 20.4333 19.6247 20.5C19.8647 20.5667 20.0847 20.6 20.2847 20.6C20.4847 20.6 20.678 20.5733 20.8647 20.52C21.0647 20.48 21.2513 20.4333 21.4247 20.38C21.9447 20.18 22.458 19.7867 22.9647 19.2C23.4713 18.6133 23.938 17.9533 24.3647 17.22C24.9247 16.2867 25.4713 15.2267 26.0047 14.04C26.538 12.84 27.1047 11.6733 27.7047 10.54C26.918 11.5933 26.078 12.5267 25.1847 13.34C24.3047 14.1533 23.4113 14.76 22.5047 15.16C22.118 15.3333 21.698 15.4667 21.2447 15.56C20.8047 15.6667 20.358 15.72 19.9047 15.72C19.4513 15.72 19.0113 15.66 18.5847 15.54C18.1713 15.42 17.798 15.2333 17.4647 14.98C17.038 14.6333 16.738 14.2 16.5647 13.68C16.3913 13.1467 16.3047 12.6 16.3047 12.04C16.3047 11.7333 16.3247 11.4333 16.3647 11.14C16.418 10.8333 16.4713 10.5467 16.5247 10.28C16.738 9.41333 17.0847 8.56 17.5647 7.72C18.0447 6.88 18.6247 6.08667 19.3047 5.34C19.9847 4.58 20.7447 3.91333 21.5847 3.34C22.558 2.67333 23.5847 2.14667 24.6647 1.76C25.758 1.37333 26.8913 1.18 28.0647 1.18C28.398 1.18 28.718 1.2 29.0247 1.24C29.3447 1.28 29.6313 1.34667 29.8847 1.44C30.3113 1.58667 30.618 1.78667 30.8047 2.04C30.9913 2.29333 31.0847 2.57333 31.0847 2.88C31.0847 3.37333 30.878 3.86667 30.4647 4.36C30.0113 4.89333 29.458 5.26667 28.8047 5.48C28.1647 5.68 27.5847 5.78 27.0647 5.78C26.9447 5.78 26.8313 5.78 26.7247 5.78C26.6313 5.76667 26.538 5.75333 26.4447 5.74C26.3113 5.72667 26.2447 5.68 26.2447 5.6C26.2447 5.50667 26.3247 5.47333 26.4847 5.5C26.578 5.51333 26.678 5.52667 26.7847 5.54C26.8913 5.54 26.998 5.54 27.1047 5.54C27.598 5.54 28.118 5.44 28.6647 5.24C29.2247 5.02667 29.7247 4.64 30.1647 4.08C30.3913 3.78667 30.5047 3.46667 30.5047 3.12C30.5047 2.88 30.438 2.65333 30.3047 2.44C30.1847 2.22667 29.9713 2.05333 29.6647 1.92C29.2113 1.70667 28.6647 1.61333 28.0247 1.64C27.158 1.66667 26.2847 1.85333 25.4047 2.2C24.538 2.53333 23.7047 2.97333 22.9047 3.52C22.1047 4.06667 21.3713 4.68667 20.7047 5.38C20.038 6.06 19.478 6.76 19.0247 7.48C18.8113 7.82667 18.5913 8.27333 18.3647 8.82C18.1513 9.35333 17.9647 9.93333 17.8047 10.56C17.658 11.1733 17.5847 11.7733 17.5847 12.36C17.5847 13.04 17.718 13.6467 17.9847 14.18C18.2513 14.7133 18.7247 15.0733 19.4047 15.26C19.578 15.3133 19.798 15.34 20.0647 15.34C20.398 15.34 20.7647 15.2867 21.1647 15.18C21.578 15.0867 22.0047 14.9333 22.4447 14.72C23.1647 14.3733 23.878 13.9067 24.5847 13.32C25.3047 12.72 25.9847 12.0533 26.6247 11.32C27.2647 10.5867 27.818 9.84667 28.2847 9.1C28.5513 8.68667 28.758 8.48 28.9047 8.48C29.3047 7.89333 29.7247 7.36667 30.1647 6.9C30.618 6.43333 31.098 6.06667 31.6047 5.8C32.0313 5.58667 32.4513 5.48 32.8647 5.48C33.0513 5.48 33.2313 5.5 33.4047 5.54C33.4713 5.55333 33.4913 5.59333 33.4647 5.66C33.438 5.71333 33.398 5.73333 33.3447 5.72C33.2247 5.68 33.098 5.66 32.9647 5.66C32.6447 5.66 32.298 5.77333 31.9247 6C31.5513 6.22667 31.178 6.56667 30.8047 7.02C30.218 7.71333 29.7047 8.48 29.2647 9.32C28.838 10.1467 28.438 11.02 28.0647 11.94C27.7047 12.8467 27.318 13.76 26.9047 14.68C26.5047 15.5867 26.0313 16.4667 25.4847 17.32C24.9913 18.08 24.4313 18.76 23.8047 19.36C23.178 19.96 22.4713 20.4133 21.6847 20.72C21.2313 20.8933 20.7113 20.98 20.1247 20.98C19.8847 20.98 19.6513 20.96 19.4247 20.92C19.2113 20.88 19.0313 20.82 18.8847 20.74ZM31.7662 15.12C31.3529 15.12 31.0529 15 30.8662 14.76C30.6929 14.52 30.6062 14.2267 30.6062 13.88C30.6062 13.44 30.6929 12.96 30.8662 12.44C31.0529 11.92 31.2662 11.4267 31.5062 10.96C31.7462 10.48 31.9396 10.1067 32.0862 9.84C32.3796 9.34667 32.6729 9.04 32.9662 8.92C33.2729 8.8 33.6462 8.74 34.0862 8.74C33.9529 8.78 33.7796 8.94 33.5662 9.22C33.3529 9.48667 33.1262 9.82 32.8862 10.22C32.6596 10.62 32.4396 11.0533 32.2262 11.52C32.0262 11.9733 31.8596 12.42 31.7262 12.86C31.6062 13.2867 31.5462 13.6533 31.5462 13.96C31.5462 14.1867 31.5862 14.3733 31.6662 14.52C31.7596 14.6667 31.8996 14.74 32.0862 14.74C32.2462 14.74 32.4329 14.68 32.6462 14.56C32.8596 14.4267 33.0529 14.2667 33.2262 14.08C33.8129 13.4267 34.2862 12.7133 34.6462 11.94C35.0196 11.1533 35.4329 10.3733 35.8862 9.6C36.1796 9.10667 36.4729 8.8 36.7662 8.68C37.0729 8.56 37.4462 8.5 37.8862 8.5C37.7529 8.54 37.5729 8.70667 37.3462 9C37.1196 9.28 36.8796 9.63333 36.6262 10.06C36.3862 10.4867 36.1596 10.9467 35.9462 11.44C35.7329 11.92 35.5529 12.3867 35.4062 12.84C35.2729 13.2933 35.2062 13.68 35.2062 14C35.2062 14.2133 35.2462 14.3933 35.3262 14.54C35.4196 14.6733 35.5529 14.74 35.7262 14.74C35.8862 14.74 36.0729 14.6733 36.2862 14.54C36.4996 14.4067 36.6929 14.2533 36.8662 14.08C37.1729 13.7467 37.4529 13.38 37.7062 12.98C37.9596 12.58 38.2129 12.1533 38.4662 11.7C38.5062 11.6467 38.5396 11.62 38.5662 11.62C38.6196 11.62 38.6462 11.66 38.6462 11.74C38.6462 11.8067 38.6329 11.86 38.6062 11.9C38.3662 12.34 38.1129 12.78 37.8462 13.22C37.5796 13.66 37.2529 14.0733 36.8662 14.46C36.6529 14.6733 36.3996 14.8533 36.1062 15C35.8262 15.1333 35.5462 15.1733 35.2662 15.12C34.8929 15.0533 34.6262 14.9067 34.4662 14.68C34.3062 14.44 34.2262 14.1533 34.2262 13.82C34.2262 13.5533 34.2662 13.2733 34.3462 12.98C34.1862 13.2333 34.0129 13.4867 33.8262 13.74C33.6529 13.9933 33.4529 14.2333 33.2262 14.46C33.0396 14.6467 32.8129 14.8067 32.5462 14.94C32.2929 15.06 32.0329 15.12 31.7662 15.12ZM38.9133 15.12C38.5399 15.12 38.2666 15 38.0933 14.76C37.9199 14.5067 37.8333 14.2 37.8333 13.84C37.8333 13.7333 37.8399 13.6267 37.8533 13.52C37.8799 13.4 37.9066 13.28 37.9333 13.16C38.0799 12.6267 38.3066 12.0333 38.6133 11.38C38.9333 10.7133 39.2399 10.12 39.5333 9.6C39.7066 9.30667 39.8666 9.1 40.0133 8.98C40.1599 8.84667 40.3199 8.75333 40.4933 8.7C40.6666 8.63333 40.8733 8.56 41.1133 8.48C41.1799 8.45333 41.2466 8.43333 41.3133 8.42C41.3799 8.40667 41.4533 8.39333 41.5333 8.38C41.2666 8.64667 40.9933 8.96667 40.7133 9.34C40.4466 9.71333 40.1533 10.2267 39.8333 10.88C39.6599 11.2267 39.4866 11.6133 39.3133 12.04C39.1533 12.4667 39.0133 12.8667 38.8933 13.24C38.7733 13.6133 38.7066 13.9067 38.6933 14.12C38.6799 14.3733 38.7133 14.5533 38.7933 14.66C38.8733 14.7667 38.9799 14.82 39.1133 14.82C39.3399 14.82 39.5533 14.74 39.7533 14.58C39.9666 14.42 40.1533 14.2533 40.3133 14.08C40.6066 13.7467 40.8799 13.38 41.1333 12.98C41.3999 12.58 41.6599 12.1533 41.9133 11.7C41.9533 11.6467 41.9866 11.62 42.0133 11.62C42.0666 11.62 42.0933 11.66 42.0933 11.74C42.0933 11.8067 42.0799 11.86 42.0533 11.9C41.8133 12.34 41.5599 12.78 41.2933 13.22C41.0266 13.66 40.6999 14.0733 40.3133 14.46C40.1399 14.6333 39.9333 14.7867 39.6933 14.92C39.4666 15.0533 39.2066 15.12 38.9133 15.12ZM41.3533 7.26C41.2066 7.26 41.0799 7.20667 40.9733 7.1C40.8799 6.99333 40.8333 6.86667 40.8333 6.72C40.8333 6.53333 40.9066 6.36667 41.0533 6.22C41.2133 6.07333 41.3866 5.98667 41.5733 5.96C41.7199 5.96 41.8399 6.01333 41.9333 6.12C42.0399 6.21333 42.0933 6.34 42.0933 6.5C42.0933 6.67333 42.0199 6.84667 41.8733 7.02C41.7266 7.18 41.5533 7.26 41.3533 7.26ZM42.5908 15.14C42.2574 15.14 41.9574 15.0467 41.6908 14.86C41.4374 14.66 41.3108 14.34 41.3108 13.9C41.3108 13.4333 41.4241 12.92 41.6508 12.36C41.8774 11.8 42.0908 11.3 42.2908 10.86C42.3974 10.6467 42.5374 10.36 42.7108 10C42.8974 9.62667 43.0974 9.26 43.3108 8.9H42.3708C42.3308 8.9 42.3108 8.86667 42.3108 8.8C42.3108 8.74667 42.3308 8.69333 42.3708 8.64C42.4108 8.57333 42.4574 8.54 42.5108 8.54C42.8841 8.54 43.1641 8.50667 43.3508 8.44C43.5374 8.37333 43.6974 8.28 43.8308 8.16C44.0441 7.97333 44.2508 7.73333 44.4508 7.44C44.6641 7.14667 44.8708 6.89333 45.0708 6.68C45.2174 6.49333 45.3974 6.35333 45.6108 6.26C45.8374 6.16667 45.9841 6.13333 46.0508 6.16C45.9841 6.25333 45.8774 6.41333 45.7308 6.64C45.5841 6.86667 45.4308 7.11333 45.2708 7.38C45.1108 7.64667 44.9641 7.89333 44.8308 8.12C44.6974 8.34667 44.6108 8.5 44.5708 8.58H45.8908C45.9308 8.58 45.9508 8.59333 45.9508 8.62C45.9508 8.67333 45.9174 8.73333 45.8508 8.8C45.7974 8.86667 45.7441 8.9 45.6908 8.9H44.3908C44.1508 9.31333 43.8641 9.85333 43.5308 10.52C43.2108 11.1733 42.9241 11.8067 42.6708 12.42C42.6174 12.54 42.5241 12.78 42.3908 13.14C42.2708 13.5 42.2108 13.8333 42.2108 14.14C42.2108 14.34 42.2508 14.5067 42.3308 14.64C42.4241 14.7733 42.5774 14.84 42.7908 14.84C43.0174 14.84 43.2641 14.76 43.5308 14.6C43.7974 14.4267 44.0041 14.2533 44.1508 14.08C44.4574 13.7467 44.7374 13.38 44.9908 12.98C45.2441 12.58 45.4974 12.1533 45.7508 11.7C45.7908 11.6467 45.8308 11.62 45.8708 11.62C45.9241 11.62 45.9508 11.66 45.9508 11.74C45.9508 11.8067 45.9374 11.86 45.9108 11.9C45.6708 12.34 45.4108 12.78 45.1308 13.22C44.8641 13.66 44.5374 14.0733 44.1508 14.46C43.9774 14.6333 43.7441 14.7933 43.4508 14.94C43.1574 15.0733 42.8708 15.14 42.5908 15.14ZM49.8984 15.14C49.4718 15.14 49.1784 15.0067 49.0184 14.74C48.8584 14.46 48.7784 14.1533 48.7784 13.82C48.7784 13.7533 48.7851 13.64 48.7984 13.48C48.8251 13.3067 48.8518 13.1467 48.8784 13C48.6918 13.2533 48.4651 13.5333 48.1984 13.84C47.9451 14.1467 47.6851 14.4067 47.4184 14.62C46.9918 14.9667 46.6051 15.14 46.2584 15.14C45.9251 15.14 45.6651 15 45.4784 14.72C45.3051 14.44 45.2184 14.0867 45.2184 13.66C45.2184 13.1133 45.3384 12.56 45.5784 12C45.8184 11.44 46.1318 10.9133 46.5184 10.42C46.9184 9.91333 47.3584 9.48 47.8384 9.12C48.1184 8.92 48.4584 8.76 48.8584 8.64C49.2718 8.50667 49.6851 8.44 50.0984 8.44C50.5651 8.44 50.9718 8.51333 51.3184 8.66C51.6784 8.79333 51.9251 8.98667 52.0584 9.24C51.7784 9.6 51.4918 10.0467 51.1984 10.58C50.9051 11.1 50.6518 11.5733 50.4384 12C50.2918 12.2933 50.1318 12.66 49.9584 13.1C49.7851 13.5267 49.6984 13.8933 49.6984 14.2C49.6984 14.3333 49.7318 14.4667 49.7984 14.6C49.8651 14.7333 49.9918 14.8 50.1784 14.8C50.3918 14.8 50.5984 14.72 50.7984 14.56C50.9984 14.4 51.1651 14.24 51.2984 14.08C51.6051 13.7467 51.8851 13.38 52.1384 12.98C52.3918 12.58 52.6451 12.1533 52.8984 11.7C52.9384 11.6467 52.9784 11.62 53.0184 11.62C53.0718 11.62 53.0984 11.66 53.0984 11.74C53.0984 11.8067 53.0851 11.86 53.0584 11.9C52.8318 12.34 52.5784 12.78 52.2984 13.22C52.0184 13.66 51.6851 14.0733 51.2984 14.46C51.1118 14.6467 50.8918 14.8067 50.6384 14.94C50.3851 15.0733 50.1384 15.14 49.8984 15.14ZM46.6984 14.52C46.9518 14.52 47.2251 14.3867 47.5184 14.12C47.8251 13.84 48.1184 13.5067 48.3984 13.12C48.6918 12.72 48.9518 12.34 49.1784 11.98C49.4184 11.6067 49.6051 11.32 49.7384 11.12C50.0184 10.68 50.2784 10.3133 50.5184 10.02C50.7584 9.72667 51.1318 9.5 51.6384 9.34C51.6651 9.34 51.6851 9.34 51.6984 9.34C51.7251 9.32667 51.7518 9.32 51.7784 9.32C51.6584 9.13333 51.4584 8.99333 51.1784 8.9C50.8984 8.80667 50.6251 8.76 50.3584 8.76C49.9451 8.76 49.5451 8.87333 49.1584 9.1C48.7718 9.32667 48.4184 9.61333 48.0984 9.96C47.7918 10.32 47.4918 10.7133 47.1984 11.14C46.9051 11.5667 46.6651 12 46.4784 12.44C46.3051 12.88 46.2184 13.3 46.2184 13.7C46.2184 13.9133 46.2518 14.1067 46.3184 14.28C46.3984 14.44 46.5251 14.52 46.6984 14.52ZM56.6669 14.64C56.4402 14.8267 56.2135 14.96 55.9869 15.04C55.7735 15.1333 55.5735 15.18 55.3869 15.18C55.0535 15.18 54.7735 15.0667 54.5469 14.84C54.3335 14.6 54.2269 14.2867 54.2269 13.9C54.2269 13.6733 54.2802 13.4 54.3869 13.08C54.5602 12.6 54.8202 12.14 55.1669 11.7C55.5135 11.26 55.8469 10.8133 56.1669 10.36C56.3669 10.0933 56.4669 9.83333 56.4669 9.58C56.4669 9.44667 56.4269 9.33333 56.3469 9.24C56.2802 9.14667 56.1535 9.09333 55.9669 9.08C55.8602 9.05333 55.7402 9.04 55.6069 9.04C55.4735 9.04 55.3402 9.04 55.2069 9.04H54.6469C54.5669 9.04 54.4935 9.04 54.4269 9.04C54.3602 9.04 54.3002 9.03333 54.2469 9.02C54.1935 9.35333 54.0802 9.72667 53.9069 10.14C53.7469 10.5533 53.5602 10.9667 53.3469 11.38C53.1335 11.7933 52.9269 12.1667 52.7269 12.5C52.6735 12.58 52.6269 12.62 52.5869 12.62C52.5469 12.62 52.5269 12.58 52.5269 12.5C52.5269 12.4067 52.5469 12.3333 52.5869 12.28C52.8669 11.7333 53.1335 11.2 53.3869 10.68C53.6535 10.1467 53.8335 9.59333 53.9269 9.02C53.6202 8.84667 53.4135 8.54667 53.3069 8.12C53.2935 8.05333 53.2802 7.99333 53.2669 7.94C53.2669 7.87333 53.2669 7.81333 53.2669 7.76C53.2669 7.52 53.3135 7.32 53.4069 7.16C53.5135 6.98667 53.6335 6.9 53.7669 6.9C53.9535 6.9 54.1069 7.08 54.2269 7.44C54.2535 7.53333 54.2735 7.64 54.2869 7.76C54.3002 7.86667 54.3069 7.97333 54.3069 8.08C54.3069 8.2 54.3002 8.31333 54.2869 8.42C54.2869 8.51333 54.2802 8.59333 54.2669 8.66C54.3602 8.68667 54.4802 8.70667 54.6269 8.72C54.7869 8.73333 54.9602 8.74 55.1469 8.74C55.4269 8.74 55.7202 8.73333 56.0269 8.72C56.3335 8.69333 56.5935 8.68 56.8069 8.68C57.0602 8.68 57.2335 8.73333 57.3269 8.84C57.4202 8.94667 57.4669 9.08 57.4669 9.24C57.4669 9.44 57.4135 9.66 57.3069 9.9C57.2135 10.1267 57.1202 10.32 57.0269 10.48C56.8535 10.8 56.6869 11.0867 56.5269 11.34C56.3802 11.58 56.2135 11.84 56.0269 12.12C55.7469 12.5467 55.5402 12.94 55.4069 13.3C55.2869 13.6467 55.2269 13.94 55.2269 14.18C55.2269 14.5933 55.3802 14.8 55.6869 14.8C55.9402 14.8 56.2669 14.62 56.6669 14.26C56.9202 14.0333 57.1535 13.7667 57.3669 13.46C57.5935 13.14 57.7935 12.82 57.9669 12.5C58.1535 12.1667 58.3069 11.8933 58.4269 11.68C58.4535 11.64 58.4802 11.62 58.5069 11.62C58.5602 11.62 58.5869 11.6733 58.5869 11.78C58.5869 11.86 58.5669 11.9333 58.5269 12C58.3002 12.4133 58.0402 12.8667 57.7469 13.36C57.4535 13.8533 57.0935 14.28 56.6669 14.64ZM26.2322 33.04C25.2322 33.04 24.3922 32.8667 23.7122 32.52C23.0455 32.1867 22.5388 31.7333 22.1922 31.16C21.8588 30.6 21.6922 29.9733 21.6922 29.28C21.6922 28.7467 21.7855 28.2 21.9722 27.64C22.1722 27.08 22.4655 26.5267 22.8522 25.98C23.2522 25.4333 23.7455 24.9333 24.3322 24.48C24.9188 24.0267 25.5588 23.6667 26.2522 23.4C26.9455 23.12 27.6322 22.98 28.3122 22.98C28.9922 22.98 29.4922 23.12 29.8122 23.4C30.1455 23.6667 30.3122 24.0133 30.3122 24.44C30.3122 24.6933 30.2522 24.9733 30.1322 25.28C30.0122 25.5867 29.8255 25.8933 29.5722 26.2C29.2255 26.64 28.7988 27.0333 28.2922 27.38C27.7855 27.7133 27.2455 27.98 26.6722 28.18C26.1122 28.3667 25.5522 28.46 24.9922 28.46C24.8988 28.46 24.8122 28.46 24.7322 28.46C24.6522 28.4467 24.5655 28.4333 24.4722 28.42C24.4188 28.4067 24.3922 28.3733 24.3922 28.32C24.4055 28.2533 24.4388 28.2267 24.4922 28.24C25.0388 28.28 25.6188 28.1933 26.2322 27.98C26.8588 27.7667 27.4522 27.4733 28.0122 27.1C28.5722 26.7267 29.0122 26.32 29.3322 25.88C29.7055 25.36 29.8922 24.88 29.8922 24.44C29.8922 24.12 29.7788 23.8533 29.5522 23.64C29.3255 23.4133 28.9655 23.3 28.4722 23.3C27.8188 23.3 27.1855 23.44 26.5722 23.72C25.9588 23.9867 25.3855 24.34 24.8522 24.78C24.3322 25.22 23.8855 25.7 23.5122 26.22C23.1522 26.7133 22.8788 27.2333 22.6922 27.78C22.5055 28.3267 22.4122 28.8533 22.4122 29.36C22.4122 29.9467 22.5455 30.4933 22.8122 31C23.0788 31.4933 23.4855 31.8867 24.0322 32.18C24.5788 32.4867 25.2788 32.64 26.1322 32.64C27.0788 32.64 27.9388 32.4733 28.7122 32.14C29.4855 31.82 30.1522 31.38 30.7122 30.82C31.2722 30.2467 31.6988 29.6 31.9922 28.88C32.2988 28.1467 32.4522 27.3733 32.4522 26.56C32.4522 26.2133 32.4388 25.88 32.4122 25.56C32.3988 25.2267 32.3388 24.9067 32.2322 24.6C32.0855 24.1333 31.8988 23.6467 31.6722 23.14C31.4455 22.6333 31.2388 22.1133 31.0522 21.58C30.8788 21.0467 30.7922 20.5067 30.7922 19.96C30.7922 19.4667 30.8922 18.9733 31.0922 18.48C31.3588 17.88 31.7455 17.4 32.2522 17.04C32.7722 16.6667 33.3788 16.48 34.0722 16.48C34.3255 16.48 34.5788 16.52 34.8322 16.6C35.0988 16.6667 35.3255 16.7867 35.5122 16.96C35.6988 17.1333 35.7922 17.3733 35.7922 17.68C35.7922 17.8933 35.7255 18.0467 35.5922 18.14C35.4588 18.2333 35.3188 18.28 35.1722 18.28C35.0922 18.28 35.0388 18.2733 35.0122 18.26L35.0722 17.86C35.0722 17.5267 34.9722 17.28 34.7722 17.12C34.5855 16.9467 34.3388 16.86 34.0322 16.86C33.6588 16.86 33.2922 16.9667 32.9322 17.18C32.5722 17.38 32.3055 17.64 32.1322 17.96C31.8655 18.4533 31.7322 18.96 31.7322 19.48C31.7322 19.9333 31.8055 20.38 31.9522 20.82C32.1122 21.2467 32.2988 21.6667 32.5122 22.08C32.7388 22.48 32.9455 22.8667 33.1322 23.24C33.6655 24.2533 33.9322 25.3133 33.9322 26.42C33.9322 27.38 33.7322 28.2667 33.3322 29.08C32.9322 29.88 32.3788 30.5733 31.6722 31.16C30.9655 31.76 30.1455 32.22 29.2122 32.54C28.2922 32.8733 27.2988 33.04 26.2322 33.04ZM35.6376 31.14C35.3043 31.14 35.0043 31.0467 34.7376 30.86C34.4843 30.66 34.3576 30.34 34.3576 29.9C34.3576 29.4333 34.471 28.92 34.6976 28.36C34.9243 27.8 35.1376 27.3 35.3376 26.86C35.4443 26.6467 35.5843 26.36 35.7576 26C35.9443 25.6267 36.1443 25.26 36.3576 24.9H35.4176C35.3776 24.9 35.3576 24.8667 35.3576 24.8C35.3576 24.7467 35.3776 24.6933 35.4176 24.64C35.4576 24.5733 35.5043 24.54 35.5576 24.54C35.931 24.54 36.211 24.5067 36.3976 24.44C36.5843 24.3733 36.7443 24.28 36.8776 24.16C37.091 23.9733 37.2976 23.7333 37.4976 23.44C37.711 23.1467 37.9176 22.8933 38.1176 22.68C38.2643 22.4933 38.4443 22.3533 38.6576 22.26C38.8843 22.1667 39.031 22.1333 39.0976 22.16C39.031 22.2533 38.9243 22.4133 38.7776 22.64C38.631 22.8667 38.4776 23.1133 38.3176 23.38C38.1576 23.6467 38.011 23.8933 37.8776 24.12C37.7443 24.3467 37.6576 24.5 37.6176 24.58H38.9376C38.9776 24.58 38.9976 24.5933 38.9976 24.62C38.9976 24.6733 38.9643 24.7333 38.8976 24.8C38.8443 24.8667 38.791 24.9 38.7376 24.9H37.4376C37.1976 25.3133 36.911 25.8533 36.5776 26.52C36.2576 27.1733 35.971 27.8067 35.7176 28.42C35.6643 28.54 35.571 28.78 35.4376 29.14C35.3176 29.5 35.2576 29.8333 35.2576 30.14C35.2576 30.34 35.2976 30.5067 35.3776 30.64C35.471 30.7733 35.6243 30.84 35.8376 30.84C36.0643 30.84 36.311 30.76 36.5776 30.6C36.8443 30.4267 37.051 30.2533 37.1976 30.08C37.5043 29.7467 37.7843 29.38 38.0376 28.98C38.291 28.58 38.5443 28.1533 38.7976 27.7C38.8376 27.6467 38.8776 27.62 38.9176 27.62C38.971 27.62 38.9976 27.66 38.9976 27.74C38.9976 27.8067 38.9843 27.86 38.9576 27.9C38.7176 28.34 38.4576 28.78 38.1776 29.22C37.911 29.66 37.5843 30.0733 37.1976 30.46C37.0243 30.6333 36.791 30.7933 36.4976 30.94C36.2043 31.0733 35.9176 31.14 35.6376 31.14ZM40.3053 31.4C39.7986 31.4 39.3586 31.24 38.9853 30.92C38.6253 30.5867 38.4453 30.08 38.4453 29.4C38.4453 28.9733 38.5186 28.5333 38.6653 28.08C38.8253 27.6133 38.9986 27.2 39.1853 26.84C39.532 26.1867 39.9653 25.62 40.4853 25.14C41.0186 24.6467 41.652 24.4 42.3853 24.4C43.092 24.4 43.5853 24.5933 43.8653 24.98C44.1453 25.3667 44.2853 25.84 44.2853 26.4C44.2853 26.6267 44.2653 26.86 44.2253 27.1C44.1186 27.7533 43.8986 28.3867 43.5653 29C43.6586 29.1333 43.7786 29.2467 43.9253 29.34C44.0853 29.42 44.2586 29.46 44.4453 29.46C44.7653 29.46 45.0386 29.3733 45.2653 29.2C45.492 29.0267 45.6853 28.8133 45.8453 28.56C46.0186 28.2933 46.1653 28.0467 46.2853 27.82C46.3653 27.6733 46.4386 27.6 46.5053 27.6C46.5453 27.6 46.5653 27.6267 46.5653 27.68C46.5653 27.7333 46.5253 27.8533 46.4453 28.04C46.2186 28.4933 45.952 28.8867 45.6453 29.22C45.3386 29.5533 44.9386 29.72 44.4453 29.72C43.992 29.72 43.6453 29.56 43.4053 29.24C43.032 29.8533 42.5786 30.3667 42.0453 30.78C41.512 31.1933 40.932 31.4 40.3053 31.4ZM40.3453 31.16C40.9986 31.16 41.6453 30.84 42.2853 30.2C42.472 30.0133 42.6386 29.82 42.7853 29.62C42.9453 29.4067 43.0853 29.1933 43.2053 28.98C43.032 28.78 42.9053 28.5667 42.8253 28.34C42.7586 28.1 42.7253 27.8733 42.7253 27.66C42.7253 27.3267 42.7853 27.0333 42.9053 26.78C43.0253 26.5133 43.192 26.38 43.4053 26.38C43.512 26.38 43.612 26.4333 43.7053 26.54C43.812 26.6467 43.8786 26.8133 43.9053 27.04C43.9453 26.8533 43.9653 26.6533 43.9653 26.44C43.9653 25.9333 43.872 25.5333 43.6853 25.24C43.4986 24.9333 43.1853 24.78 42.7453 24.78C42.4786 24.78 42.2053 24.8867 41.9253 25.1C41.6453 25.3 41.3786 25.5467 41.1253 25.84C40.8853 26.1333 40.672 26.4333 40.4853 26.74C40.2986 27.0467 40.1586 27.3 40.0653 27.5C39.8386 27.9933 39.672 28.4333 39.5653 28.82C39.472 29.2067 39.4253 29.5467 39.4253 29.84C39.4253 30.2667 39.512 30.5933 39.6853 30.82C39.872 31.0467 40.092 31.16 40.3453 31.16ZM50.1239 30.64C49.8972 30.8267 49.6706 30.96 49.4439 31.04C49.2306 31.1333 49.0306 31.18 48.8439 31.18C48.5106 31.18 48.2306 31.0667 48.0039 30.84C47.7906 30.6 47.6839 30.2867 47.6839 29.9C47.6839 29.6733 47.7372 29.4 47.8439 29.08C48.0172 28.6 48.2772 28.14 48.6239 27.7C48.9706 27.26 49.3039 26.8133 49.6239 26.36C49.8239 26.0933 49.9239 25.8333 49.9239 25.58C49.9239 25.4467 49.8839 25.3333 49.8039 25.24C49.7372 25.1467 49.6106 25.0933 49.4239 25.08C49.3172 25.0533 49.1972 25.04 49.0639 25.04C48.9306 25.04 48.7972 25.04 48.6639 25.04H48.1039C48.0239 25.04 47.9506 25.04 47.8839 25.04C47.8172 25.04 47.7572 25.0333 47.7039 25.02C47.6506 25.3533 47.5372 25.7267 47.3639 26.14C47.2039 26.5533 47.0172 26.9667 46.8039 27.38C46.5906 27.7933 46.3839 28.1667 46.1839 28.5C46.1306 28.58 46.0839 28.62 46.0439 28.62C46.0039 28.62 45.9839 28.58 45.9839 28.5C45.9839 28.4067 46.0039 28.3333 46.0439 28.28C46.3239 27.7333 46.5906 27.2 46.8439 26.68C47.1106 26.1467 47.2906 25.5933 47.3839 25.02C47.0772 24.8467 46.8706 24.5467 46.7639 24.12C46.7506 24.0533 46.7372 23.9933 46.7239 23.94C46.7239 23.8733 46.7239 23.8133 46.7239 23.76C46.7239 23.52 46.7706 23.32 46.8639 23.16C46.9706 22.9867 47.0906 22.9 47.2239 22.9C47.4106 22.9 47.5639 23.08 47.6839 23.44C47.7106 23.5333 47.7306 23.64 47.7439 23.76C47.7572 23.8667 47.7639 23.9733 47.7639 24.08C47.7639 24.2 47.7572 24.3133 47.7439 24.42C47.7439 24.5133 47.7372 24.5933 47.7239 24.66C47.8172 24.6867 47.9372 24.7067 48.0839 24.72C48.2439 24.7333 48.4172 24.74 48.6039 24.74C48.8839 24.74 49.1772 24.7333 49.4839 24.72C49.7906 24.6933 50.0506 24.68 50.2639 24.68C50.5172 24.68 50.6906 24.7333 50.7839 24.84C50.8772 24.9467 50.9239 25.08 50.9239 25.24C50.9239 25.44 50.8706 25.66 50.7639 25.9C50.6706 26.1267 50.5772 26.32 50.4839 26.48C50.3106 26.8 50.1439 27.0867 49.9839 27.34C49.8372 27.58 49.6706 27.84 49.4839 28.12C49.2039 28.5467 48.9972 28.94 48.8639 29.3C48.7439 29.6467 48.6839 29.94 48.6839 30.18C48.6839 30.5933 48.8372 30.8 49.1439 30.8C49.3972 30.8 49.7239 30.62 50.1239 30.26C50.3772 30.0333 50.6106 29.7667 50.8239 29.46C51.0506 29.14 51.2506 28.82 51.4239 28.5C51.6106 28.1667 51.7639 27.8933 51.8839 27.68C51.9106 27.64 51.9372 27.62 51.9639 27.62C52.0172 27.62 52.0439 27.6733 52.0439 27.78C52.0439 27.86 52.0239 27.9333 51.9839 28C51.7572 28.4133 51.4972 28.8667 51.2039 29.36C50.9106 29.8533 50.5506 30.28 50.1239 30.64ZM53.6912 31.16C52.9179 31.16 52.3712 30.96 52.0512 30.56C51.8912 30.3867 51.7779 30.18 51.7112 29.94C51.6446 29.7 51.6112 29.4533 51.6112 29.2C51.6112 28.88 51.6512 28.56 51.7312 28.24C51.8112 27.9067 51.9112 27.6 52.0312 27.32C52.2179 26.88 52.4646 26.44 52.7712 26C53.0779 25.5467 53.4446 25.1667 53.8712 24.86C54.3112 24.5533 54.7912 24.4 55.3112 24.4C55.6579 24.4 55.9312 24.4867 56.1312 24.66C56.3312 24.8333 56.4312 25.1 56.4312 25.46C56.4312 25.8733 56.3046 26.2933 56.0512 26.72C55.7979 27.1333 55.4779 27.48 55.0912 27.76C54.7046 28.04 54.3046 28.18 53.8912 28.18C53.5179 28.18 53.1912 28.0467 52.9112 27.78C52.8312 27.9933 52.7646 28.2333 52.7112 28.5C52.6579 28.7533 52.6312 29.0133 52.6312 29.28C52.6312 29.6933 52.7112 30.0533 52.8712 30.36C53.0446 30.6667 53.3512 30.82 53.7912 30.82C54.1112 30.82 54.4179 30.74 54.7112 30.58C55.0179 30.4067 55.2912 30.2 55.5312 29.96C55.7979 29.68 56.0512 29.38 56.2912 29.06C56.5312 28.74 56.7646 28.3667 56.9912 27.94C57.0179 27.9 57.0379 27.88 57.0512 27.88C57.1046 27.88 57.1312 27.94 57.1312 28.06C57.1312 28.14 57.1046 28.2267 57.0512 28.32C56.8512 28.68 56.6179 29.0467 56.3512 29.42C56.0846 29.78 55.8112 30.0933 55.5312 30.36C55.2779 30.6 55.0046 30.7933 54.7112 30.94C54.4179 31.0867 54.0779 31.16 53.6912 31.16ZM53.0112 27.48C53.1046 27.6133 53.2112 27.7133 53.3312 27.78C53.4646 27.8333 53.5979 27.86 53.7312 27.86C54.0512 27.86 54.3846 27.74 54.7312 27.5C55.0779 27.2467 55.3579 26.9533 55.5712 26.62C55.6646 26.4733 55.7446 26.28 55.8112 26.04C55.8912 25.8 55.9312 25.5733 55.9312 25.36C55.9312 25.1733 55.8912 25.0133 55.8112 24.88C55.7446 24.7333 55.6046 24.66 55.3912 24.66C55.1512 24.66 54.8646 24.8067 54.5312 25.1C54.2112 25.3933 53.9046 25.7733 53.6112 26.24C53.5179 26.4 53.4112 26.5867 53.2912 26.8C53.1846 27.0133 53.0912 27.24 53.0112 27.48Z" fill="#CC7408"/>
<rect x="12" width="2" height="35" fill="#CC7408"/>
<path d="M9.73809 0H11.2143V35H9.73809V0Z" fill="#CC7408"/>
<path d="M7.47619 0H8.90619V35H7.47619V0Z" fill="#CC7408"/>
<path d="M5.47619 0H6.47619V35H5.47619V0Z" fill="#CC7408"/>
<path d="M0.844444 0H1.53333V35H0.844444V0Z" fill="#CC7408"/>
<path d="M3.01587 0H4V35H3.01587V0Z" fill="#CC7408"/>
</svg>
