<svg width="62" height="25" viewBox="0 0 62 25" fill="none" xmlns="http://www.w3.org/2000/svg">
<path d="M20.7697 11.166C18.9859 11.166 17.6122 10.7526 16.6487 9.92578C15.6851 9.09896 15.2033 7.91732 15.2033 6.38086C15.2033 5.31315 15.4247 4.39193 15.8674 3.61719C16.3166 2.83594 16.9514 2.23372 17.7717 1.81055C18.592 1.38086 19.5588 1.16602 20.6721 1.16602C21.2711 1.16602 21.8375 1.22461 22.3713 1.3418C22.9117 1.45898 23.3414 1.61849 23.6604 1.82031C23.7255 2.26953 23.7678 2.71224 23.7873 3.14844C23.8069 3.57812 23.8036 3.96549 23.7776 4.31055H22.7424L21.7561 2.24023L22.7424 2.93359C22.0197 2.57552 21.2711 2.39648 20.4963 2.39648C18.7125 2.39648 17.8205 3.5944 17.8205 5.99023C17.8205 8.55534 18.8622 9.83789 20.9455 9.83789C21.7854 9.83789 22.5862 9.66211 23.3479 9.31055L24.0412 10.502C23.6506 10.7168 23.1721 10.8828 22.6057 11C22.0458 11.1107 21.4338 11.166 20.7697 11.166ZM21.717 10.5996V7.12305H24.0412V10.502L21.717 10.5996ZM21.717 8.09961V6.73242L22.01 7.37695L20.3694 7.12305L20.4377 6.24414H24.5686L24.4905 7.20117C24.2886 7.31185 24.0152 7.40625 23.6701 7.48438L24.0412 6.73242V8.09961H21.717ZM28.2112 11.166C26.551 11.166 25.7209 10.4043 25.7209 8.88086V4.45703L27.9865 4.56445V8.56836C27.9865 8.98503 28.0614 9.28776 28.2112 9.47656C28.3609 9.66536 28.6018 9.75977 28.9338 9.75977C29.6695 9.75977 30.3987 9.47005 31.1213 8.89062L31.3069 9.62305C30.4345 10.6517 29.4026 11.166 28.2112 11.166ZM25.7209 5.9707V4.7207L26.1115 5.16016L24.9494 4.50586L25.0178 3.76367C25.6558 3.52279 26.4371 3.39258 27.3615 3.37305H27.9865V4.92578L25.7209 5.9707ZM32.5373 10.4238L30.2717 10.0332V4.47656L32.5373 4.57422V10.4238ZM30.2717 5.9707V4.7207L30.6623 5.16992L29.4123 4.47656L29.4709 3.79297C29.7964 3.66927 30.1708 3.57161 30.594 3.5C31.0171 3.42188 31.4566 3.37956 31.9123 3.37305H32.5373V4.92578L30.2717 5.9707ZM30.8967 11.0488L30.428 9.64258L32.5373 9.14453V10.4043L32.1858 9.75977L33.3381 10.1016L33.2697 10.9219C32.6838 11.0195 31.8928 11.0618 30.8967 11.0488ZM35.0666 10.9414V4.1543L37.3322 3.96875V10.9414H35.0666ZM35.0666 5.9707V4.7207L35.4572 5.38477L34.1096 4.64258L34.1682 3.97852C34.5197 3.82227 34.9136 3.69206 35.3498 3.58789C35.7925 3.48372 36.245 3.41211 36.7072 3.37305H37.3322V4.92578L35.0666 5.9707ZM34.1877 11L34.2561 10.1797C34.4188 10.1016 34.5979 10.0332 34.7932 9.97461C34.9885 9.90951 35.2033 9.85091 35.4377 9.79883L35.0666 10.7559V9.22266H37.3322V10.7559L36.9905 9.87695L38.2502 10.1602L38.1819 11H34.1877ZM36.053 2.54297C35.6493 2.54297 35.327 2.42904 35.0862 2.20117C34.8453 1.97331 34.7248 1.66732 34.7248 1.2832C34.7248 0.905599 34.8453 0.60612 35.0862 0.384766C35.327 0.156901 35.6493 0.0429688 36.053 0.0429688C36.4566 0.0429688 36.7789 0.156901 37.0197 0.384766C37.2606 0.60612 37.3811 0.908854 37.3811 1.29297C37.3811 1.67057 37.2606 1.97331 37.0197 2.20117C36.7789 2.42904 36.4566 2.54297 36.053 2.54297ZM42.0686 11.1172C40.467 11.1172 39.6662 10.3848 39.6662 8.91992V4.1543L39.7541 3.46094L40.3401 1.58594H41.9319V8.62695C41.9319 9.02409 42.0035 9.31055 42.1467 9.48633C42.2964 9.66211 42.5341 9.75 42.8596 9.75C43.1526 9.75 43.5269 9.69466 43.9826 9.58398L43.9045 10.7168C43.4423 10.9837 42.8303 11.1172 42.0686 11.1172ZM38.6115 4.69141L38.6799 3.8125C39.0054 3.66927 39.3635 3.55208 39.7541 3.46094H43.9338L43.8362 4.69141H38.6115ZM48.6799 9.94531C48.6799 9.40495 48.6864 8.85482 48.6994 8.29492C48.7125 7.72852 48.719 7.19792 48.719 6.70312V5.86328C48.719 4.9388 48.3153 4.47656 47.508 4.47656C46.9937 4.47656 46.4859 4.66536 45.9846 5.04297L44.9885 5.93164C44.969 5.26107 45.008 4.65234 45.1057 4.10547C46.0757 3.5651 47.15 3.29492 48.3283 3.29492C50.0862 3.29492 50.9651 4.02409 50.9651 5.48242C50.9651 5.66471 50.9618 5.95117 50.9553 6.3418C50.9488 6.72591 50.9423 7.14258 50.9358 7.5918C50.9293 8.03451 50.9227 8.45117 50.9162 8.8418C50.9097 9.22591 50.9065 9.51562 50.9065 9.71094L48.6799 9.94531ZM44.9885 5.93164L45.0862 4.79883L46.9905 4.25195L46.092 5.93164H44.9885ZM46.7268 11.1465C46.0497 11.1465 45.5093 10.9577 45.1057 10.5801C44.702 10.196 44.5002 9.6849 44.5002 9.04688C44.5002 7.70573 45.5028 6.82682 47.508 6.41016L49.2854 6.03906L49.4612 7.07422L48.0647 7.25C47.6285 7.30208 47.3095 7.43229 47.1076 7.64062C46.9123 7.84245 46.8147 8.14844 46.8147 8.55859C46.8147 9.35938 47.1272 9.75977 47.7522 9.75977C48.1949 9.75977 48.7548 9.51562 49.4319 9.02734L49.6076 9.57422C48.7808 10.6224 47.8205 11.1465 46.7268 11.1465ZM49.2658 11.0488L48.7971 9.64258L50.9065 9.14453V10.4043L50.5549 9.75977L51.7072 10.1016L51.6389 10.9219C51.053 11.0195 50.2619 11.0618 49.2658 11.0488ZM53.3869 10.9414V4.69141L55.6526 5.18945V10.9414H53.3869ZM52.5666 11L52.635 10.1797C52.8173 10.0885 52.9996 10.0137 53.1819 9.95508C53.3707 9.89648 53.5595 9.8444 53.7483 9.79883L53.3869 10.7559V9.22266H55.6526V10.7559L55.3303 9.90625L56.9807 10.1602L56.9123 11H52.5666ZM54.9885 6.25391L54.7932 5.86328C55.1578 4.97786 55.5484 4.33984 55.9651 3.94922C56.3882 3.55859 56.8961 3.36328 57.4885 3.36328C57.5796 3.36328 57.6643 3.36979 57.7424 3.38281C57.8205 3.38932 57.8889 3.40234 57.9475 3.42188L57.801 5.19922C57.6317 5.16667 57.4625 5.14388 57.2932 5.13086C57.1239 5.11784 56.9839 5.11133 56.8733 5.11133C56.4957 5.11133 56.1604 5.20247 55.8674 5.38477C55.5744 5.56055 55.2815 5.85026 54.9885 6.25391ZM53.3869 5.9707V4.7207L53.7776 5.38477L52.4299 4.64258L52.4885 3.97852C52.8401 3.82227 53.2339 3.69206 53.6701 3.58789C54.1128 3.48372 54.5653 3.41211 55.0276 3.37305L55.5744 5.12109L53.3869 5.9707ZM23.5725 22.1562C22.2834 22.1562 21.2352 21.8633 20.428 21.2773C20.2652 20.2161 20.2261 19.3145 20.3108 18.5723H21.3166L22.469 21.0234L21.6291 20.3691C22.3322 20.7663 23.0549 20.9648 23.7971 20.9648C24.3049 20.9648 24.6955 20.8639 24.969 20.6621C25.2424 20.4603 25.3791 20.1738 25.3791 19.8027C25.3791 19.4902 25.2717 19.2331 25.0569 19.0312C24.842 18.8229 24.4937 18.6439 24.0119 18.4941L22.8791 18.1426C21.1734 17.6152 20.3205 16.6452 20.3205 15.2324C20.3205 14.3014 20.6558 13.5592 21.3264 13.0059C21.997 12.4525 22.8987 12.1758 24.0315 12.1758C25.0666 12.1758 26.0041 12.3906 26.844 12.8203C26.9742 13.7057 27.0132 14.5098 26.9612 15.2324H25.9162L24.9592 13.2402L25.9748 13.9629C25.2131 13.5658 24.4905 13.3672 23.8069 13.3672C22.8889 13.3672 22.4299 13.7285 22.4299 14.4512C22.4299 14.7702 22.5438 15.0371 22.7717 15.252C23.0061 15.4668 23.3804 15.6556 23.8947 15.8184L25.0276 16.1699C26.6942 16.6908 27.5276 17.638 27.5276 19.0117C27.5276 19.9753 27.1695 20.7402 26.4533 21.3066C25.7437 21.873 24.7834 22.1562 23.5725 22.1562ZM31.4924 22.1172C29.8908 22.1172 29.0901 21.3848 29.0901 19.9199V15.1543L29.178 14.4609L29.7639 12.5859H31.3557V19.627C31.3557 20.0241 31.4273 20.3105 31.5705 20.4863C31.7203 20.6621 31.9579 20.75 32.2834 20.75C32.5764 20.75 32.9507 20.6947 33.4065 20.584L33.3283 21.7168C32.8661 21.9837 32.2541 22.1172 31.4924 22.1172ZM28.0354 15.6914L28.1037 14.8125C28.4293 14.6693 28.7873 14.5521 29.178 14.4609H33.3576L33.26 15.6914H28.0354ZM37.7131 22.1758C36.5087 22.1758 35.5484 21.821 34.8322 21.1113C34.1226 20.4017 33.7678 19.4479 33.7678 18.25C33.7678 17.0391 34.1259 16.0755 34.842 15.3594C35.5582 14.6432 36.525 14.2852 37.7424 14.2852C38.9468 14.2852 39.9039 14.64 40.6135 15.3496C41.3231 16.0592 41.678 17.0163 41.678 18.2207C41.678 19.4316 41.3199 20.3952 40.6037 21.1113C39.8876 21.821 38.924 22.1758 37.7131 22.1758ZM37.8694 20.9648C38.7418 20.9648 39.178 20.1413 39.178 18.4941C39.178 17.5306 39.038 16.7917 38.758 16.2773C38.4846 15.7565 38.0907 15.4961 37.5764 15.4961C36.704 15.4961 36.2678 16.3197 36.2678 17.9668C36.2678 18.9303 36.4045 19.6725 36.678 20.1934C36.9579 20.7077 37.355 20.9648 37.8694 20.9648ZM43.3381 21.9414V15.6914L45.6037 16.1895V21.9414H43.3381ZM42.5178 22L42.5862 21.1797C42.7684 21.0885 42.9507 21.0137 43.133 20.9551C43.3218 20.8965 43.5106 20.8444 43.6994 20.7988L43.3381 21.7559V20.2227H45.6037V21.7559L45.2815 20.9062L46.9319 21.1602L46.8635 22H42.5178ZM44.9397 17.2539L44.7444 16.8633C45.1089 15.9779 45.4996 15.3398 45.9162 14.9492C46.3394 14.5586 46.8472 14.3633 47.4397 14.3633C47.5308 14.3633 47.6155 14.3698 47.6936 14.3828C47.7717 14.3893 47.8401 14.4023 47.8987 14.4219L47.7522 16.1992C47.5829 16.1667 47.4136 16.1439 47.2444 16.1309C47.0751 16.1178 46.9351 16.1113 46.8244 16.1113C46.4468 16.1113 46.1115 16.2025 45.8186 16.3848C45.5256 16.5605 45.2326 16.8503 44.9397 17.2539ZM43.3381 16.9707V15.7207L43.7287 16.3848L42.3811 15.6426L42.4397 14.9785C42.7912 14.8223 43.1851 14.6921 43.6213 14.5879C44.064 14.4837 44.5165 14.4121 44.9787 14.373L45.5256 16.1211L43.3381 16.9707ZM52.4494 22.1562C51.1343 22.1562 50.122 21.8275 49.4123 21.1699C48.7092 20.5059 48.3576 19.5618 48.3576 18.3379C48.3576 17.0944 48.7059 16.1081 49.4026 15.3789C50.1057 14.6497 51.0497 14.2852 52.2346 14.2852C53.3088 14.2852 54.1324 14.5944 54.7053 15.2129C55.2847 15.8314 55.5744 16.7168 55.5744 17.8691C55.5744 17.9668 55.5712 18.0905 55.5647 18.2402C55.5582 18.39 55.5484 18.5104 55.5354 18.6016L53.2112 18.1328C53.2112 17.1888 53.1168 16.5117 52.928 16.1016C52.7391 15.6849 52.4332 15.4766 52.01 15.4766C51.2027 15.4766 50.799 16.1829 50.799 17.5957C50.799 19.6204 51.6356 20.6328 53.3088 20.6328C53.9599 20.6328 54.6402 20.4993 55.3498 20.2324L55.2522 21.4824C54.9266 21.6973 54.5165 21.8633 54.0217 21.9805C53.5269 22.0977 53.0028 22.1562 52.4494 22.1562ZM49.4026 18.6016V17.6055H55.3791L55.5354 18.6016H49.4026Z" fill="#CC7408"/>
<rect x="12" y="1" width="2" height="21.5385" fill="#CC7408"/>
<path d="M9.73809 1H11.2143V22.5385H9.73809V1Z" fill="#CC7408"/>
<path d="M7.47619 1H8.90619V22.5385H7.47619V1Z" fill="#CC7408"/>
<path d="M5.47619 1H6.47619V22.5385H5.47619V1Z" fill="#CC7408"/>
<path d="M0.844444 1H1.53333V22.5385H0.844444V1Z" fill="#CC7408"/>
<path d="M3.01587 1H4V22.5385H3.01587V1Z" fill="#CC7408"/>
</svg>
